<?xml version="1.0" encoding="utf-8"?>
<!-- Generator: Adobe Illustrator 27.5.0, SVG Export Plug-In . SVG Version: 6.00 Build 0)  -->
<svg version="1.1" xmlns="http://www.w3.org/2000/svg" xmlns:xlink="http://www.w3.org/1999/xlink" x="0px" y="0px"
	 viewBox="0 0 600 600" style="enable-background:new 0 0 600 600;" xml:space="preserve">
<g id="background">
	<rect y="0" style="fill:#FFFFFF;" width="600" height="600"/>
</g>
<g id="objects">
	<g>
		<path style="fill:#B7DDF5;" d="M160.232,203.168c43.423-4.594,95.803,2.385,139.585-1.858
			c52.526-5.698,109.098-5.364,161.358-5.143c-0.077,3.036-4.553,7.572-0.233,9.111c17.317,4.628,17.182,10.705,17.036,16.779
			c-0.072,3.038-13.097-0.056-8.809,3c-13.098-0.053-34.994,1.363-21.959,4.458c4.29,3.061,21.846,0.094,26.102,4.668
			c4.27,4.575-4.592,9.094-0.331,13.665c4.383,0.017,13.141,0.052,17.519,0.069c4.304,3.059-4.586,9.1-0.204,9.116
			c13.078,3.09,30.649,1.627,48.166,1.682c-0.059,3.037,4.291,6.088-4.51,7.58c-153.526,2.576-311.893,7.522-465.178,1.232
			c-17.445-1.71-3.869-7.635,9.566-12.044c-4.477,1.471-4.178-3.085-8.664-1.614c0.303-4.556,9.559-12.044,27.153-13.374
			c-4.375-0.048-8.746-0.096-13.126-0.144c-4.277-1.565,0.295-4.555,0.491-7.588c4.377,0.049,8.744,0.097,8.84-1.425
			c0.097-1.515,0.29-4.553,0.387-6.07c-4.363-0.048-13.105-0.146-17.468-0.194c4.363,0.049,8.732,0.097,8.83-1.42
			c0.098-1.518,0.294-4.555,0.393-6.077c8.825-1.415,21.724,1.756,30.554,0.328l0.28-4.55c-8.636-1.614-21.814-0.228-30.54-0.328
			c4.466-1.471,4.562-2.988,4.757-6.027c13.168-1.378,25.971,3.32,39.319-1.105l-13.07-0.136
			C125.652,198.265,147.063,204.559,160.232,203.168z"/>
		<g>
			<path style="fill:#F8C3B9;" d="M60.992,514.24c1.337,1.629,3.816,1.813,6.154,2.109C65.433,514.782,63.549,514.088,60.992,514.24
				z"/>
			<path style="fill:#F8C3B9;" d="M67.19,516.384l0.038-0.021c-0.032-0.002-0.055-0.009-0.082-0.014
				C67.164,516.363,67.175,516.372,67.19,516.384z"/>
			<path style="fill:#F8C3B9;" d="M537.79,447.461c-0.585,0.029-1.251,0.061-1.927,0.094
				C536.506,447.606,537.163,447.614,537.79,447.461z"/>
			<path style="fill:#F8C3B9;" d="M181.062,522.213l0.5-2.669c5.593,0.012,1.467,3.072,6.672,2.46
				c2.218-3.762,8.568,0.471,10.458-1.522c-0.056,0.3,2.47,0.438,2.25,1.619c0.879-2.046,2.628-0.453,4.251-0.962
				c0.607-0.566-0.394-0.617-0.795-1.241l3.693-0.693c1.397,0.673,1.689,1.884,0.124,2.094c9.518,0.823,55.327,3.176,65.673,2.221
				c-1.257-1.56-4.481-0.537-5.583-2.984c2.781-1.346,3.987,0.508,5.249-0.919c0.889,3.634,5.944,0.913,7.85,4.602l0.868-2.048
				l1.3,1.268c12.063-2.049,2.779-1.02,13.374-0.46c6.157-0.273,9.188-3.103,12.564-2.028c-0.507-0.025-1.811-1.293-0.2-1.806
				c0.2,1.806,4.286-1.265,4.989,0.563c1.567-0.217,6.606,0.051,4.992-2.427c0.809,1.237,5.294,1.772,2.572,2.823
				c1.517,0.083,2.975,0.455,4.09-0.083l-1.925-0.7c5.144-0.325,7.871,1.603,11.295-0.607l-1.86-0.993
				c3.073-0.136,5.645-0.304,6.761,2.144l-3.177,0.73c5.091-0.03,8.166-0.17,12.452-1.441l-1.511-0.077
				c5.491-2.404,33.81-4.245,38.878-7.275l-2.231-1.907l4.327-1.571c-0.505-0.026-2.257,6.14-2.662,5.519
				c9.176-0.121,56.9-1.346,65.334-0.043c3.391,1.065,0.541,3.01,0.494,3.31c4.176-0.689,1.843-2.001,5.375-1.823
				c0.957,0.346-0.236,1.484-0.785,1.752c1.555-0.218,2.976,0.445,3.116-0.44c-1.921-0.695-1.044-3.041-1.828-4.571l4.541,0.223
				l-0.237,1.483c1.013,0.049,2.666-4.045,7.112-3.229c7.518,0.671,26.788,0.182,34.355,0.555c-0.136,0.889-1.737,1.409-3.343,1.924
				c1.015,0.05,2.568-0.172,3.49,0.471c-1.797-1.579,3.201-1.035,1.784-1.702c5.621-3.605,12.733-0.272,17.677-2.716
				c0.505-3.26,12.584-55.993,12.635-59.871c1.51,0.075,3.011,0.15,3.468,0.471c-0.374-0.913-3.336-1.358-4.924-0.842l-0.309,2.077
				c-3.645,0.717-0.829-1.237-4.376-1.108c-0.158-1.701,3.11-2.054,5.985-2.208c-2.583-0.206-5.136-1.454-6.223,0.404
				c-2.418-0.716,0.308-2.077-2.606-2.814c-2.093,0.493-4.864,2.149-7.24,1.135l0.048-0.3c-5.788-1.775-8.96,2.551-14.246,0.793
				l0.585-0.566c-1.86-0.991-5.59,0.317-8.96-0.746c0.96,0.347,1.775,1.58-0.269,1.775c-3.878-1.087-6.563-0.025-9.384-1.361
				l-2.775,1.655c-13.571-0.375-67.287,1.741-80.946,1.92l0.543-0.263c-20.82,0.721-63.496,0.327-85.081,2.46
				c-3.258-1.662-7.858-1.309-11.307-1.792c1.9,0.697,1.192,1.855-0.311,1.778c-10.56-0.269-0.76,1.128-11.478,1.747
				c-12.375,1.441-71.59-0.685-82.44-2.183c-5.989,2.367-13.222,0.469-19.05,1.945l0.608-0.565
				c-6.224,0.858-41.055-1.719-48.277-0.929l0.945,0.355c-6.343,1.436-5.34-1.199-10.222-2.073c0.492,2.718-4.96,4.201-7.018,4.385
				l0.112-0.592c-3.11,0.424-10.237,2.709-15.355,3.015l0.288-1.481c-4.344,1.547-12.294,0.799-15.357,0.922
				c-6.948-0.687-17.551-3.393-27.013-1.539l-5.758-4.295l-0.91,0.41c0,0-13.085,50.924-1.393,61.935l-0.293,1.477l2.466-0.163
				c2.897,0.762,4.368-0.938,4.074,0.537l-4.021-0.226c2.93,0.462,0.815,1.223-0.369,2.048c1.226,0.157,2.413,0.349,3.368,0.814
				c0.619-0.563-0.389-0.619-0.829-0.946c1.625-0.504,3.929-1.869,5.823-1.165c3.02,0.174,0.041,2.399,3.565,2.6
				c18.57,1.354,36.539,3.266,55.409,3.123c0.393,0.618-0.116,0.591-0.676,0.861c5.716-0.581,10.751-0.296,15.959-0.908
				c1.399,0.676,1.741,1.593,2.131,2.211C151.193,521.716,180.612,521.893,181.062,522.213z"/>
		</g>
		<path style="fill:#B5EFCE;" d="M524.436,141.999c-2.06-0.328-4.123-0.66-6.165-0.964c-37.826-4.699-75.808-3.287-117.827-6.527
			c-29.362-3.19-63.118-1.811-92.604-1.971c69.759,3.205,143.205,2.414,210.163,13.21c-6.892,3.607-15.105,6.475-24.574,6.447
			c-22.742-1.492-45.185-2.568-67.449-3.337c0.059-1.548,0.175-4.573,0.233-6.095c-63.516,4.368-121.912-8.205-185.595-0.92
			c2.198,0.832,0.785,2.074,0.255,3.063c-0.156,0.002-0.305,0.004-0.449,0.006c0.144-0.002,0.293-0.004,0.449-0.006
			c-0.477,0.868-0.261,1.543,3.678,1.567c-3.939-0.024-4.155-0.699-3.678-1.567c62.357-1.112,120.464,0.657,182.564,3.87
			c-96.462-3.24-189.709-0.771-288.731-1.522c-4.214-0.032-12.659-0.097-16.879-0.129c-16.515-4.736-33.254-6.406-50.112-6.551
			c4.865-7.636-10.627-23.12,22.759-19.77c0.129-1.532,0.386-4.602,0.515-6.136c-33.003-7.954-43.573-29.54-9.587-35.396
			c38.132-5.82,87.812,0.701,134.029-2.067c33.562-1.313,67.073-2.653,100.343,0.592c45.764,4.846,96.027,3.528,141.845,9.818
			c16.71,1.593,46.152-2.927,54.401,1.698c5.957,2.221,6.114,5.489,5.097,9.13c-27.553-0.613-55.03-0.863-82.176-1.634
			c-33.266-1.842-66.51-3.893-99.634-7.111c32.335,4.373,65.726,6.149,99.634,7.111c27.056,1.501,54.15,2.856,81.235,4.572
			c-1.074,3.13-2.116,6.395-0.539,9.429c0,0,8.397,0.021,12.596,0.031c16.622,7.715,12.189,18.45,3.585,26.103
			C529.63,138.499,527.173,140.251,524.436,141.999z"/>
		<g>
			<path style="fill:#DDC6E7;" d="M76.236,344.767c0.104,0.025,0.208,0.049,0.312,0.074c0.243-0.081,0.487-0.163,0.73-0.244
				c-0.193-0.029-0.392-0.058-0.589-0.088C76.524,344.59,76.37,344.675,76.236,344.767z"/>
			<path style="fill:#DDC6E7;" d="M67.26,347.189c-0.798-0.228-1.564-0.473-2.712-0.413c-0.28,0.138-0.421,0.208-0.495,0.245
				c0.42,0.139,0.99,0.328,1.557,0.515C66.728,347.905,67.317,347.615,67.26,347.189z"/>
			<path style="fill:#DDC6E7;" d="M64.053,347.021c-0.39-0.13-0.649-0.217-0.649-0.217c0.151,0.1,0.292,0.193,0.43,0.285
				c0.126-0.021,0.13-0.025,0.13-0.025S63.967,347.063,64.053,347.021z"/>
			<path style="fill:#DDC6E7;" d="M394.779,340.066c15.344,0.516,30.754,0.811,46.158,0.982c0.516,0.008,0.948-0.135,0.971-0.327
				c0.023-0.165-0.38-0.332-0.857-0.326c-15.411-0.199-30.742-0.503-46.081-1.016c-0.516-0.003-0.941,0.137-1.01,0.316
				C393.935,339.889,394.298,340.046,394.779,340.066z"/>
			<path style="fill:#DDC6E7;" d="M510.145,357.696c-0.363,0.148-0.345,0.344,0.039,0.474c0.328,0.114,0.911,0.122,1.27-0.023
				c0.305-0.125,0.287-0.362-0.041-0.473C511.032,357.542,510.45,357.573,510.145,357.696z"/>
			<path style="fill:#DDC6E7;" d="M538.5,356.181c-27.047-0.156-53.823,1.43-79.995,4.042c-1.427,0.035-2.858,0.069-4.295,0.104
				c0,0-0.002-0.009-0.002-0.015c-0.463-0.768-1.42-1.442-2.714-1.987c9.271-0.428,18.489-0.912,27.737-1.473
				c7.712-0.019,15.424-0.037,23.151-0.056c1.114,0,2.037-0.335,2.052-0.792c0.024-0.417-0.905-0.734-2.075-0.751l-5.68-0.001
				c1.548-0.548,2.552-1.312,2.637-2.158c0.087-0.815-0.713-1.549-2.041-2.109c8.328-0.861,16.575-1.802,24.611-3.032
				c0.472-0.069,0.72-0.25,0.547-0.427c-0.173-0.174-0.662-0.265-1.128-0.194c-11.717,0.615-23.28,1.469-34.883,2.158
				c-9.189-0.905-18.176-1.896-28.09-2.19c-14.437-0.395-27.97,0.779-41.497,1.951c-4.871-0.223-9.723-0.379-14.537-0.461
				c0.675-0.394,1.074-0.86,1.07-1.361c-0.001-0.126-0.053-0.248-0.109-0.372c4.237,0.017,8.497,0.034,12.828,0.052
				c40.155,0.095,77.798-3.732,116.077-7.004c2.451-0.139,4.201-1.003,3.88-1.914c-0.313-0.917-2.596-1.556-5.038-1.417
				c-18.386,0.213-35.296,1.987-53.882,3.754c-13.234,1.252-24.87,2.192-38.177,3.094c-15.581,1.045-30.091,0.975-45.377,1.084
				c-1.503-0.134-3.01-0.22-4.529-0.153c-1.537,0.065-3.07,0.13-4.594,0.194c-11.966-0.032-128.144-0.525-139.816-1.064
				c13.967-0.671,132.348-1.442,146.076-2.808c0.989-0.06,1.639-0.413,1.536-0.766c-0.178-0.356-1.067-0.606-2.055-0.545
				c-19.142,0.936-152.379,1.387-171.573,1.908c-5.226-3.134-16.289-4.923-26.183-4.971c-3.654-0.032-7.044,0.342-10.464,0.885
				c1.593,0.12,3.146,0.238,4.738,0.358c-4.707,0.142-8.726,0.987-12.702,1.86c-0.345-0.04-0.691-0.081-1.062-0.102
				c-9.195-1.697-19.957-1.282-29.896-1.986c0.22,0.401,0.443,0.809,0.662,1.209c-1.836-0.301-2.899-1.027-4.912-1.237
				c0.556,0.297,1.089,0.583,1.646,0.881l-0.121-0.012c-2.145-0.646-4.738-0.922-7.435-0.933
				c-6.091-1.848-13.543-2.894-21.361-3.366c-1.001-0.482-2.506-0.812-4.278-0.866c-0.746-0.148-1.621-0.247-2.159-0.458
				c-4.823-1.953-10.729-3.279-17.254-4.262c1.255,0.364,2.557,0.741,3.813,1.105c-1.886-0.301-3.745-0.615-5.853-0.624
				c0.228,0.225,0.48,0.473,0.711,0.701c-6.471-1.667-15.411-1.022-19.979,1.431c-4.585,2.459-3.088,5.796,3.391,7.463l0.934,0.259
				c-3.341,0.389-6.27,1.198-7.951,2.607c-0.899,0.774-0.158,1.746,0.007,2.642c-0.302,1.299,2.298,2.424,5.789,2.501
				c0.947,0.02,1.852-0.043,2.685-0.164c4.018,0.461,8.131,0.824,12.038,1.39c0.771,0.14,1.719,0.01,2.136-0.294
				c0.355-0.3,0.029-0.652-0.77-0.782c-2.81-0.593-5.53-1.225-8.236-1.867c-0.228,0.076-0.454,0.152-0.684,0.229
				c0.099-0.111,0.235-0.208,0.373-0.303c-0.246-0.059-0.493-0.117-0.739-0.176c0.194-0.057,0.376-0.12,0.576-0.174
				c0.206,0.031,0.41,0.061,0.615,0.092c0.352-0.171,0.756-0.322,1.214-0.452c4.875,0.43,9.699,0.915,14.232,1.754
				c0.265,0.054-0.195,0.636,0.289,0.847c0.242,0.104,0.493,0.199,0.754,0.295c-0.815-0.122-1.677-0.225-2.605-0.301
				c-3.522,0.838-4.851,1.155-5.77,1.374l-0.015-0.008c0,0-0.008,0.002-0.276,0.077c-0.425,0.101-0.796,0.189-1.334,0.317
				c0,0,0.001,0.02,0.003,0.05c-0.107,0.03-0.221,0.061-0.339,0.094l-1.568-0.11c-0.59-0.05-1.165,0.059-1.458,0.24
				c-0.202-0.143-0.418-0.289-0.692-0.434c-2.987-0.271-2.987-0.271-6.052-0.515c0,0,0.002,0.148,0.097,0.354
				c-0.122,0.014-1.149,0.178-2.343,0.103c-1.151,0.029-1.151,0.029-4.017-0.202c0,0,0,0,1.372,0.577c0,0,0,0-1.204-0.399
				c0,0,0,0,0.299,0.662c0,0,0,0-0.54-0.721c0,0,0,0-0.537,0.545c0,0-0.008-0.005-2.365-1.567c-0.189,0.035-0.637,0.118-1.762,0.327
				c0,0-0.315,0.151-0.547,0.333c-0.031,0.193-0.031,0.193-1.006,0.873c0,0-0.028,0.223,0.059,0.459
				c0.288,0.218,0.288,0.218,0.345,0.827c0,0,0.324,0.234,0.802,0.433c0.459,0.115,0.577,0.145,2.279,0.514
				c-0.152,0.102-0.295,0.212-0.424,0.324c-0.361,1.131-0.362,1.131,1.707,3.748c0,0,1.175,0.712,3.097,1.221
				c2.24,0.24,2.24,0.24,4.829,0.489c0,0,0.561,0.095,1.534,0.219c0.716,0.424,0.874,0.534,1.403,0.916c0,0,0.004,0,0.012,0.006
				c-0.497,0.028-0.985,0.106-1.391,0.231c-1.179,0.373-1.359,1.014-0.388,1.444c-1.336,1.745-0.605,3.316,0.99,4.816
				c-0.513,0.577-0.758,1.186-0.708,1.81c-1.953,1.492-3.188,3.076-3.732,4.757l-0.268,1.468c0.521,1.236,2.1,2.387,4.466,3.267
				l0.714,0.35l-0.717,1.212c2.977,3.208,8.975,5.763,12.649,8.818l2.779,1.608c2.017,1.3,5.244,2.244,9.041,2.688l4.014,0.444
				c0.847,0.019,1.687,0.03,2.54,0.037c-4.313,1.523-6.716,3.747-5.982,6.081c1.265,3.841,10.764,6.524,21.204,5.948
				c27.839-0.3,54.724-0.723,83.177-2.52c21.064-1.309,49.732-3.039,70.368-3.197c19.73-1.83,143.162-4.146,162.365-6.903
				c16.137-2.297,28.427-6.736,42.637-10.163c0.413-0.091,0.448-0.307,0.225-0.46c-0.334-0.154-0.914-0.163-1.284-0.056
				c-22.588,3.088-45.396,5.789-69.685,6.58c-2.783,0.086-5.519,0.123-8.228,0.119c-0.299-0.056-0.629-0.094-0.985-0.103
				c-2.464-0.167-4.94-0.311-7.411-0.448l2.58-0.063c1.707,0.011,3.166-0.488,3.284-1.145c0.002-0.274-0.24-0.524-0.639-0.729
				c6.308-0.739,12.477-1.693,18.623-2.689c1.837-0.087,3.524-0.333,4.976-0.694c7.121,0.416,14.266,0.69,21.429,1.066l1.775,0.172
				c2.351,0.115,4.61-0.301,5.726-1.072c0.36-0.227,0.573-0.472,0.678-0.716c16.272-1.504,32.796-2.677,48.11-5.365
				c0.777-0.136,1.184-0.416,1.051-0.719c0.291,0.07,0.674,0.086,1.015,0.006c1.82-0.529,3.866-0.864,6.022-1.161
				c0.469-0.111,0.722-0.292,0.499-0.444c-0.229-0.194-0.765-0.265-1.185-0.178c-2.205,0.318-4.362,0.696-6.335,1.21
				c-0.211,0.06-0.35,0.155-0.385,0.255c-0.447-0.185-1.148-0.264-1.839-0.173c-15.862,1.022-31.208,3.081-47.245,3.653
				c7.828-1.241,15.842-2.122,24.265-3.089c10.168-1.154,19.504-2.752,29.754-3.465c0.534-0.008,0.887-0.193,0.826-0.371
				c-0.073-0.178-0.515-0.329-1.04-0.276c-21.001,1.13-39.36,5.702-61.102,5.911c-0.855,0.006-1.71-0.005-2.554-0.023
				c6.684-1.592,13.241-3.22,19.774-4.826c19.969-0.841,39.842-2.026,59.446-3.673c0.96-0.019,1.727-0.332,1.695-0.687
				c-0.029-0.357-0.853-0.637-1.808-0.617c-11.158-0.401-22.378-0.764-33.617-1.048l2.345-0.505l2.339-0.204
				c7.219-0.124,14.438-0.306,21.678-0.578c2.707,0.009,4.926-0.806,5.043-1.836c0.018-1.002-2.011-1.79-4.617-1.84l1.258-0.194
				c0.425-0.049,0.723-0.25,0.604-0.408c-0.171-0.176-0.717-0.285-1.129-0.236c-1.514,0.259-3.005,0.513-4.5,0.768
				c-13.759-0.228-27.523,0.033-41.289,0.368c14.796-1.329,29.789-2.295,44.897-2.777c-0.302,0.126-0.333,0.34,0.047,0.471
				c0.324,0.11,0.964,0.101,1.272-0.026c0.355-0.144,0.289-0.36-0.041-0.473l-0.034-0.009c8.109-0.245,16.248-0.358,24.414-0.307
				c0.477,0.01,0.882-0.155,0.867-0.351C539.47,356.319,539.029,356.169,538.5,356.181z M72.219,352.105
				c0.256,0.082,0.453,0.207,0.776,0.409C72.995,352.515,72.993,352.514,72.219,352.105z M76.372,375.037l-0.192-0.151l2.463-3.69
				L76.372,375.037z M90.02,359.057c-0.292-0.217-0.645-0.479-1.092-0.812c0,0,0.464,0.341,1.106,0.811L90.02,359.057z
				 M121.394,350.572c-0.487,0.064-1.437,0.007-0.931,0.518c-3.961-0.25-7.986-0.423-12.118-0.506
				c-1.538-0.033-3.058,0.04-4.516,0.219c-1.606-0.955-3.309-1.881-5.503-2.629c3.689,0.558,7.913,0.765,11.796,1.131
				c4.306,0.413,8.542,0.793,12.765,1.136C122.391,350.484,121.896,350.527,121.394,350.572z M131.417,342.241l-3.013-0.432
				l0.552,0.292c-3.888-0.229-7.763-0.47-11.616-0.756c-5.549-0.92-11.514-1.538-17.564-1.779c1.761-0.401,3.431-0.851,4.988-1.337
				c7.687,1.001,15.065,2.323,23.132,2.678c0.532,0.094,1.056,0.196,1.58,0.302c0.752,0.349,1.51,0.701,2.267,1.052
				C131.636,342.256,131.526,342.25,131.417,342.241z"/>
		</g>
	</g>
</g>
</svg>
