<?xml version="1.0" standalone="no"?>
<!DOCTYPE svg PUBLIC "-//W3C//DTD SVG 20010904//EN"
 "http://www.w3.org/TR/2001/REC-SVG-20010904/DTD/svg10.dtd">
<svg version="1.0" xmlns="http://www.w3.org/2000/svg"
 width="5120.000000pt" height="5120.000000pt" viewBox="0 0 5120.000000 5120.000000"
 preserveAspectRatio="xMidYMid meet">

<g transform="translate(0.000000,5120.000000) scale(0.100000,-0.100000)"
fill="#000000" stroke="none">
<path d="M12520 44784 c-198 -42 -364 -195 -437 -401 l-28 -78 -3 -1672 -2
-1673 -1038 -2 -1037 -3 -74 -27 c-146 -53 -260 -153 -331 -288 -172 -331 -11
-726 345 -848 l80 -27 1028 -3 1027 -3 0 -1509 0 -1510 -1022 0 c-1128 0
-1068 3 -1203 -64 -135 -67 -247 -199 -296 -347 -34 -106 -34 -262 0 -368 48
-145 157 -275 292 -346 140 -73 68 -69 1207 -73 l1022 -3 0 -1504 0 -1504
-1027 -3 -1028 -3 -80 -28 c-202 -71 -344 -223 -395 -423 -82 -320 111 -645
435 -729 51 -13 191 -15 1077 -15 l1018 0 0 -1510 0 -1510 -1002 0 c-1113 0
-1079 1 -1218 -66 -101 -50 -212 -160 -263 -261 -91 -184 -88 -373 8 -563 41
-81 163 -199 254 -244 133 -68 98 -66 1214 -66 l1007 0 0 -1510 0 -1510 -1007
0 c-1116 0 -1081 2 -1214 -66 -91 -45 -213 -163 -254 -244 -96 -190 -99 -379
-8 -563 51 -101 162 -211 263 -261 139 -67 105 -66 1218 -66 l1002 0 0 -1510
0 -1510 -1018 0 c-886 0 -1026 -2 -1077 -15 -324 -84 -517 -409 -435 -729 51
-200 193 -352 395 -423 l80 -28 1028 -3 1027 -3 0 -1504 0 -1504 -1022 -3
c-939 -3 -1028 -5 -1082 -21 -217 -64 -381 -236 -432 -452 -61 -260 81 -554
323 -668 128 -59 78 -57 1191 -57 l1022 0 0 -1510 0 -1509 -1027 -3 -1028 -3
-80 -27 c-356 -122 -517 -517 -345 -848 71 -135 185 -235 331 -288 l74 -27
1037 -3 1038 -2 2 -1673 3 -1672 28 -78 c74 -210 240 -360 444 -402 63 -13
1718 -15 13955 -12 l13883 2 100 23 c353 81 624 239 854 497 178 200 306 465
357 740 19 97 19 557 19 17935 0 17378 0 17838 -19 17935 -51 275 -179 540
-357 740 -230 258 -501 416 -854 497 l-100 23 -13890 2 c-11855 1 -13900 -1
-13955 -13z m27780 -1215 c77 -36 121 -77 161 -151 l34 -63 0 -17755 0 -17755
-34 -63 c-40 -74 -84 -115 -161 -151 l-55 -26 -13498 -3 -13497 -2 2 1317 3
1318 887 3 887 2 53 -40 c73 -56 198 -116 293 -141 110 -29 278 -29 390 0 250
65 463 253 554 489 42 109 54 194 49 330 -4 97 -10 133 -36 208 -119 350 -440
571 -802 551 -58 -3 -132 -13 -165 -22 -84 -23 -210 -84 -275 -133 l-54 -42
-893 0 -893 0 2 1507 3 1508 890 0 890 0 55 -42 c157 -121 386 -182 583 -154
320 45 571 259 669 571 20 65 23 96 23 225 0 166 -15 236 -77 360 -119 235
-344 397 -608 436 -199 29 -428 -30 -588 -151 l-52 -40 -895 0 -895 0 0 1505
0 1505 895 0 896 0 51 -40 c62 -50 191 -113 278 -136 90 -25 309 -25 400 0 94
25 235 97 307 156 129 105 232 270 274 440 18 71 21 104 16 215 -8 227 -73
374 -237 536 -86 86 -108 103 -201 147 -57 28 -135 58 -174 68 -94 23 -276 23
-370 0 -90 -23 -237 -93 -303 -145 l-52 -41 -887 2 -888 3 -3 1508 -2 1507
891 0 890 0 62 -44 c80 -57 164 -98 257 -128 64 -20 96 -23 220 -23 124 0 156
3 220 23 353 111 580 411 580 769 0 222 -73 405 -223 561 -156 162 -348 242
-577 242 -184 0 -334 -49 -478 -155 l-62 -45 -890 0 -890 0 0 1510 0 1510 890
0 890 0 62 -45 c144 -106 294 -155 478 -155 229 0 421 80 577 242 150 156 223
339 223 561 0 358 -227 658 -580 769 -64 20 -96 23 -220 23 -124 0 -156 -3
-220 -23 -93 -30 -177 -71 -257 -128 l-62 -44 -890 0 -891 0 2 1508 3 1507
888 3 887 2 52 -41 c66 -52 213 -122 303 -145 94 -23 276 -23 370 0 39 10 117
40 174 68 93 44 115 61 201 147 108 107 155 181 203 320 26 74 31 105 35 216
4 110 1 144 -17 215 -42 170 -145 335 -274 440 -72 59 -213 131 -307 156 -91
25 -310 25 -400 0 -87 -23 -216 -86 -278 -136 l-51 -40 -896 0 -895 0 0 1505
0 1505 895 0 895 0 52 -40 c392 -297 972 -159 1196 285 62 124 77 194 77 360
0 165 -15 235 -77 360 -220 441 -798 580 -1190 287 l-63 -47 -890 0 -890 0 -3
1508 -2 1507 893 0 893 0 54 -42 c65 -49 191 -110 275 -133 155 -42 358 -27
512 37 155 64 297 186 381 327 70 119 104 235 110 373 5 136 -7 221 -49 330
-69 177 -217 342 -382 423 -131 64 -226 87 -367 87 -180 0 -350 -56 -488 -162
l-53 -40 -887 2 -887 3 -3 1318 -2 1317 13497 -2 13498 -3 55 -26z"/>
</g>
</svg>
